REM DIRINDEX 1\2,1\3,1\4
REM DIRNAME cjc151,folder01,folder02,folder03
TITLE ""
FILE "108 108_TOEFL_3900.mp3" MP3
  TRACK 01 AUDIO
    TITLE "2:cjc151_4709"
    INDEX 01 00:00:00
  TRACK 02 AUDIO
    TITLE "0:"
    INDEX 01 00:01:15
  TRACK 03 AUDIO
    TITLE "3:cjc151_4710"
    INDEX 01 00:02:67
  TRACK 04 AUDIO
    TITLE "0:"
    INDEX 01 00:05:69
  TRACK 05 AUDIO
    TITLE "2:cjc151_4711"
    INDEX 01 00:07:49
  TRACK 06 AUDIO
    TITLE "0:"
    INDEX 01 00:08:60
  TRACK 07 AUDIO
    TITLE "3:cjc151_4712"
    INDEX 01 00:10:39
  TRACK 08 AUDIO
    TITLE "0:"
    INDEX 01 00:13:24
  TRACK 09 AUDIO
    TITLE "2:cjc151_4713"
    INDEX 01 00:15:03
  TRACK 10 AUDIO
    TITLE "0:"
    INDEX 01 00:16:08
  TRACK 11 AUDIO
    TITLE "3:cjc151_4714"
    INDEX 01 00:17:63
  TRACK 12 AUDIO
    TITLE "0:"
    INDEX 01 00:21:43
  TRACK 13 AUDIO
    TITLE "2:cjc151_4715"
    INDEX 01 00:23:24
  TRACK 14 AUDIO
    TITLE "0:"
    INDEX 01 00:24:45
  TRACK 15 AUDIO
    TITLE "3:cjc151_4716"
    INDEX 01 00:26:26
  TRACK 16 AUDIO
    TITLE "0:"
    INDEX 01 00:30:22
  TRACK 17 AUDIO
    TITLE "2:cjc151_4717"
    INDEX 01 00:32:03
  TRACK 18 AUDIO
    TITLE "0:"
    INDEX 01 00:33:56
  TRACK 19 AUDIO
    TITLE "3:cjc151_4718"
    INDEX 01 00:35:37
  TRACK 20 AUDIO
    TITLE "0:"
    INDEX 01 00:39:19
  TRACK 21 AUDIO
    TITLE "2:cjc151_4719"
    INDEX 01 00:40:73
  TRACK 22 AUDIO
    TITLE "0:"
    INDEX 01 00:42:18
  TRACK 23 AUDIO
    TITLE "3:cjc151_4720"
    INDEX 01 00:43:68
  TRACK 24 AUDIO
    TITLE "0:"
    INDEX 01 00:46:72
  TRACK 25 AUDIO
    TITLE "2:cjc151_4721"
    INDEX 01 00:48:51
  TRACK 26 AUDIO
    TITLE "0:"
    INDEX 01 00:49:72
  TRACK 27 AUDIO
    TITLE "3:cjc151_4722"
    INDEX 01 00:51:46
  TRACK 28 AUDIO
    TITLE "0:"
    INDEX 01 00:55:03
  TRACK 29 AUDIO
    TITLE "2:cjc151_4723"
    INDEX 01 00:56:57
  TRACK 30 AUDIO
    TITLE "0:"
    INDEX 01 00:58:17
  TRACK 31 AUDIO
    TITLE "3:cjc151_4724"
    INDEX 01 01:00:02
  TRACK 32 AUDIO
    TITLE "0:"
    INDEX 01 01:03:20
  TRACK 33 AUDIO
    TITLE "2:cjc151_4725"
    INDEX 01 01:04:74
  TRACK 34 AUDIO
    TITLE "0:"
    INDEX 01 01:06:38
  TRACK 35 AUDIO
    TITLE "3:cjc151_4726"
    INDEX 01 01:08:17
  TRACK 36 AUDIO
    TITLE "0:"
    INDEX 01 01:12:03
  TRACK 37 AUDIO
    TITLE "2:cjc151_4727"
    INDEX 01 01:13:55
  TRACK 38 AUDIO
    TITLE "0:"
    INDEX 01 01:15:60
  TRACK 39 AUDIO
    TITLE "3:cjc151_4728"
    INDEX 01 01:17:37
  TRACK 40 AUDIO
    TITLE "0:"
    INDEX 01 01:20:65
  TRACK 41 AUDIO
    TITLE "2:cjc151_4729"
    INDEX 01 01:22:54
  TRACK 42 AUDIO
    TITLE "0:"
    INDEX 01 01:23:73
  TRACK 43 AUDIO
    TITLE "3:cjc151_4730"
    INDEX 01 01:25:53
  TRACK 44 AUDIO
    TITLE "0:"
    INDEX 01 01:29:19
  TRACK 45 AUDIO
    TITLE "2:cjc151_4731"
    INDEX 01 01:30:67
  TRACK 46 AUDIO
    TITLE "0:"
    INDEX 01 01:32:37
  TRACK 47 AUDIO
    TITLE "3:cjc151_4732"
    INDEX 01 01:34:10
  TRACK 48 AUDIO
    TITLE "0:"
    INDEX 01 01:37:38
  TRACK 49 AUDIO
    TITLE "2:cjc151_4733"
    INDEX 01 01:39:23
  TRACK 50 AUDIO
    TITLE "0:"
    INDEX 01 01:40:62
  TRACK 51 AUDIO
    TITLE "3:cjc151_4734"
    INDEX 01 01:42:41
  TRACK 52 AUDIO
    TITLE "0:"
    INDEX 01 01:46:23
  TRACK 53 AUDIO
    TITLE "2:cjc151_4735"
    INDEX 01 01:48:01
  TRACK 54 AUDIO
    TITLE "0:"
    INDEX 01 01:49:32
  TRACK 55 AUDIO
    TITLE "3:cjc151_4736"
    INDEX 01 01:51:05
  TRACK 56 AUDIO
    TITLE "0:"
    INDEX 01 01:54:70
  TRACK 57 AUDIO
    TITLE "2:cjc151_4737"
    INDEX 01 01:56:49
  TRACK 58 AUDIO
    TITLE "0:"
    INDEX 01 01:57:66
  TRACK 59 AUDIO
    TITLE "3:cjc151_4738"
    INDEX 01 01:59:50
  TRACK 60 AUDIO
    TITLE "0:"
    INDEX 01 02:04:04
  TRACK 61 AUDIO
    TITLE "2:cjc151_4739"
    INDEX 01 02:05:54
  TRACK 62 AUDIO
    TITLE "0:"
    INDEX 01 02:07:14
  TRACK 63 AUDIO
    TITLE "3:cjc151_4740"
    INDEX 01 02:08:68
  TRACK 64 AUDIO
    TITLE "0:"
    INDEX 01 02:12:09
  TRACK 65 AUDIO
    TITLE "2:cjc151_4741"
    INDEX 01 02:13:63
  TRACK 66 AUDIO
    TITLE "0:"
    INDEX 01 02:15:03
  TRACK 67 AUDIO
    TITLE "3:cjc151_4742"
    INDEX 01 02:16:56
  TRACK 68 AUDIO
    TITLE "0:"
    INDEX 01 02:20:73
  TRACK 69 AUDIO
    TITLE "2:cjc151_4743"
    INDEX 01 02:22:53
  TRACK 70 AUDIO
    TITLE "0:"
    INDEX 01 02:23:72
  TRACK 71 AUDIO
    TITLE "3:cjc151_4744"
    INDEX 01 02:25:49
  TRACK 72 AUDIO
    TITLE "0:"
    INDEX 01 02:29:62
  TRACK 73 AUDIO
    TITLE "2:cjc151_4745"
    INDEX 01 02:31:40
  TRACK 74 AUDIO
    TITLE "0:"
    INDEX 01 02:32:51
  TRACK 75 AUDIO
    TITLE "3:cjc151_4746"
    INDEX 01 02:34:30
  TRACK 76 AUDIO
    TITLE "0:"
    INDEX 01 02:38:46
  TRACK 77 AUDIO
    TITLE "2:cjc151_4747"
    INDEX 01 02:40:25
  TRACK 78 AUDIO
    TITLE "0:"
    INDEX 01 02:41:52
  TRACK 79 AUDIO
    TITLE "3:cjc151_4748"
    INDEX 01 02:43:31
  TRACK 80 AUDIO
    TITLE "0:"
    INDEX 01 02:47:31
  TRACK 81 AUDIO
    TITLE "2:cjc151_4749"
    INDEX 01 02:49:14
  TRACK 82 AUDIO
    TITLE "0:"
    INDEX 01 02:50:35
  TRACK 83 AUDIO
    TITLE "3:cjc151_4750"
    INDEX 01 02:52:12
  TRACK 84 AUDIO
    TITLE "0:"
    INDEX 01 02:55:46
  TRACK 85 AUDIO
    TITLE "2:cjc151_4751"
    INDEX 01 02:57:27
  TRACK 86 AUDIO
    TITLE "0:"
    INDEX 01 02:58:56
  TRACK 87 AUDIO
    TITLE "3:cjc151_4752"
    INDEX 01 03:00:36
  TRACK 88 AUDIO
    TITLE "0:"
    INDEX 01 03:03:55
